<svg width="1280" height="720" viewBox="0 0 1280 720" xmlns="http://www.w3.org/2000/svg" role="img" aria-label="Cinema theater with screen and seats">
  <defs>
    <linearGradient id="bg" x1="0" x2="1" y1="0" y2="1">
      <stop stop-color="#0b0c14" offset="0"/>
      <stop stop-color="#0a1020" offset="0.5"/>
      <stop stop-color="#0c0f1d" offset="1"/>
    </linearGradient>
    <radialGradient id="glow" cx="50%" cy="30%" r="72%">
      <stop stop-color="#22d3ee" stop-opacity="0.32" offset="0"/>
      <stop stop-color="#a855f7" stop-opacity="0.22" offset="0.5"/>
      <stop stop-color="#0ea5e9" stop-opacity="0" offset="1"/>
    </radialGradient>
    <linearGradient id="screen" x1="0" x2="1" y1="0" y2="0">
      <stop stop-color="#0f172a" offset="0"/>
      <stop stop-color="#0b1324" offset="1"/>
    </linearGradient>
    <linearGradient id="seats" x1="0" x2="0" y1="0" y2="1">
      <stop stop-color="#111827" offset="0"/>
      <stop stop-color="#0b1224" offset="1"/>
    </linearGradient>
  </defs>
  <rect width="1280" height="720" fill="url(#bg)"/>
  <rect width="1280" height="720" fill="url(#glow)"/>
  <rect x="140" y="120" width="1000" height="420" rx="28" fill="url(#screen)" stroke="#1f2937" stroke-width="10"/>
  <rect x="180" y="160" width="920" height="340" rx="24" fill="#0b182b" opacity="0.92"/>
  <g opacity="0.65" fill="#1f2937">
    <rect x="200" y="180" width="180" height="140" rx="16"/>
    <rect x="420" y="180" width="180" height="140" rx="16"/>
    <rect x="640" y="180" width="180" height="140" rx="16"/>
    <rect x="860" y="180" width="180" height="140" rx="16"/>
  </g>
  <g opacity="0.55" fill="#111827">
    <rect x="200" y="340" width="180" height="140" rx="16"/>
    <rect x="420" y="340" width="180" height="140" rx="16"/>
    <rect x="640" y="340" width="180" height="140" rx="16"/>
    <rect x="860" y="340" width="180" height="140" rx="16"/>
  </g>
  <rect x="100" y="520" width="1080" height="180" rx="22" fill="url(#seats)" stroke="#0f172a" stroke-width="10" opacity="0.96"/>
  <g fill="#0f172a" opacity="0.85">
    <rect x="160" y="540" width="120" height="120" rx="18"/>
    <rect x="320" y="540" width="120" height="120" rx="18"/>
    <rect x="480" y="540" width="120" height="120" rx="18"/>
    <rect x="640" y="540" width="120" height="120" rx="18"/>
    <rect x="800" y="540" width="120" height="120" rx="18"/>
    <rect x="960" y="540" width="120" height="120" rx="18"/>
  </g>
  <text x="90" y="120" fill="#e2e8f0" font-family="'Inter',sans-serif" font-size="46" font-weight="700" letter-spacing="1.5">TOP MOVIES</text>
  <text x="90" y="160" fill="#cbd5e1" font-family="'Inter',sans-serif" font-size="22" font-weight="600">Cinema screen • Dolby mood • Premium seating</text>
</svg>
