<svg width="1280" height="720" viewBox="0 0 1280 720" xmlns="http://www.w3.org/2000/svg" role="img" aria-label="Basketball court with arena lighting">
  <defs>
    <linearGradient id="bg" x1="0" x2="1" y1="0" y2="1">
      <stop stop-color="#070811" offset="0"/>
      <stop stop-color="#0b1022" offset="0.5"/>
      <stop stop-color="#0a0d19" offset="1"/>
    </linearGradient>
    <radialGradient id="arena" cx="50%" cy="15%" r="75%">
      <stop stop-color="#8b5cf6" stop-opacity="0.38" offset="0"/>
      <stop stop-color="#22d3ee" stop-opacity="0.22" offset="0.55"/>
      <stop stop-color="#0ea5e9" stop-opacity="0" offset="1"/>
    </radialGradient>
    <linearGradient id="court" x1="0" x2="0" y1="0" y2="1">
      <stop stop-color="#c08457" offset="0"/>
      <stop stop-color="#a46b46" offset="1"/>
    </linearGradient>
  </defs>
  <rect width="1280" height="720" fill="url(#bg)"/>
  <rect width="1280" height="720" fill="url(#arena)"/>
  <rect x="-60" y="400" width="1400" height="360" fill="url(#court)" opacity="0.92"/>
  <g opacity="0.65" stroke="#f8fafc" stroke-width="6">
    <line x1="80" y1="460" x2="1200" y2="460"/>
    <line x1="80" y1="640" x2="1200" y2="640"/>
    <line x1="640" y1="400" x2="640" y2="760"/>
    <circle cx="640" cy="530" r="90"/>
  </g>
  <g opacity="0.9">
    <rect x="480" y="320" width="22" height="160" rx="8" fill="#22d3ee"/>
    <rect x="520" y="340" width="22" height="160" rx="8" fill="#8b5cf6"/>
    <rect x="740" y="360" width="22" height="140" rx="8" fill="#f59e0b"/>
    <rect x="780" y="320" width="22" height="180" rx="8" fill="#f97316"/>
  </g>
  <g opacity="0.9" fill="#0f172a">
    <circle cx="540" cy="500" r="22" fill="#f8fafc"/>
    <circle cx="760" cy="520" r="24" fill="#f8fafc"/>
    <rect x="560" y="490" width="180" height="18" rx="9" fill="#f8fafc"/>
  </g>
  <text x="90" y="150" fill="#e2e8f0" font-family="'Inter',sans-serif" font-size="46" font-weight="700" letter-spacing="1.5">BASKETBALL LIVE</text>
  <text x="90" y="190" fill="#cbd5e1" font-family="'Inter',sans-serif" font-size="22" font-weight="600">Arena lights • Courtside energy • 4K stream</text>
</svg>
