<svg width="1280" height="720" viewBox="0 0 1280 720" xmlns="http://www.w3.org/2000/svg" role="img" aria-label="American football night game in stadium">
  <defs>
    <linearGradient id="bg" x1="0" x2="1" y1="0" y2="1">
      <stop stop-color="#05070f" offset="0"/>
      <stop stop-color="#0b1328" offset="0.5"/>
      <stop stop-color="#0a1021" offset="1"/>
    </linearGradient>
    <radialGradient id="lights" cx="50%" cy="10%" r="70%">
      <stop stop-color="#5eead4" stop-opacity="0.45" offset="0"/>
      <stop stop-color="#22d3ee" stop-opacity="0.25" offset="0.55"/>
      <stop stop-color="#0ea5e9" stop-opacity="0" offset="1"/>
    </radialGradient>
    <linearGradient id="field" x1="0" x2="0" y1="0" y2="1">
      <stop stop-color="#0b9b5c" offset="0"/>
      <stop stop-color="#0a7c4c" offset="1"/>
    </linearGradient>
  </defs>
  <rect width="1280" height="720" fill="url(#bg)"/>
  <rect width="1280" height="720" fill="url(#lights)"/>
  <rect x="-40" y="420" width="1360" height="340" fill="url(#field)" opacity="0.95"/>
  <g opacity="0.6" stroke="#cbd5e1" stroke-width="4">
    <line x1="80" y1="460" x2="1200" y2="460"/>
    <line x1="80" y1="540" x2="1200" y2="540"/>
    <line x1="80" y1="620" x2="1200" y2="620"/>
  </g>
  <g opacity="0.9">
    <path d="M520 480c24-46 60-70 100-72 38-2 64 18 106 20 32 2 72-10 112-36l96 110-414-22z" fill="#111827" opacity="0.9"/>
    <circle cx="580" cy="470" r="18" fill="#f59e0b"/>
    <circle cx="820" cy="446" r="16" fill="#38bdf8"/>
    <circle cx="940" cy="426" r="14" fill="#f87171"/>
  </g>
  <g opacity="0.9">
    <rect x="610" y="300" width="24" height="130" rx="6" fill="#22d3ee"/>
    <rect x="642" y="280" width="22" height="140" rx="6" fill="#f472b6"/>
    <rect x="676" y="320" width="22" height="120" rx="6" fill="#a855f7"/>
  </g>
  <text x="80" y="170" fill="#e2e8f0" font-family="'Inter',sans-serif" font-size="48" font-weight="700" letter-spacing="1.5">AMERICAN FOOTBALL LIVE</text>
  <text x="80" y="212" fill="#cbd5e1" font-family="'Inter',sans-serif" font-size="22" font-weight="600">Night game • Stadium lights • 4K broadcast</text>
</svg>
