<svg width="1280" height="720" viewBox="0 0 1280 720" xmlns="http://www.w3.org/2000/svg" role="img" aria-label="Hockey rink with cold blue lighting">
  <defs>
    <linearGradient id="bg" x1="0" x2="1" y1="0" y2="1">
      <stop stop-color="#060b15" offset="0"/>
      <stop stop-color="#0b1526" offset="0.5"/>
      <stop stop-color="#0c1c32" offset="1"/>
    </linearGradient>
    <radialGradient id="glow" cx="50%" cy="18%" r="78%">
      <stop stop-color="#38bdf8" stop-opacity="0.4" offset="0"/>
      <stop stop-color="#22d3ee" stop-opacity="0.18" offset="0.55"/>
      <stop stop-color="#0ea5e9" stop-opacity="0" offset="1"/>
    </radialGradient>
    <linearGradient id="ice" x1="0" x2="0" y1="0" y2="1">
      <stop stop-color="#dbeafe" stop-opacity="0.72" offset="0"/>
      <stop stop-color="#cbd5e1" stop-opacity="0.9" offset="1"/>
    </linearGradient>
  </defs>
  <rect width="1280" height="720" fill="url(#bg)"/>
  <rect width="1280" height="720" fill="url(#glow)"/>
  <rect x="-30" y="420" width="1340" height="320" rx="28" fill="url(#ice)" opacity="0.95"/>
  <g stroke="#0ea5e9" stroke-width="6" opacity="0.7" fill="none">
    <rect x="160" y="460" width="960" height="200" rx="32"/>
    <line x1="640" y1="460" x2="640" y2="660"/>
    <circle cx="640" cy="560" r="70"/>
  </g>
  <g opacity="0.9">
    <path d="M520 540c14-24 36-36 64-36 26 0 46 6 64 22l-18 74-118-10z" fill="#0f172a" opacity="0.82"/>
    <rect x="602" y="488" width="10" height="70" rx="5" fill="#0ea5e9"/>
    <rect x="618" y="496" width="10" height="62" rx="5" fill="#38bdf8"/>
    <circle cx="646" cy="530" r="11" fill="#f8fafc"/>
  </g>
  <text x="100" y="150" fill="#e2e8f0" font-family="'Inter',sans-serif" font-size="46" font-weight="700" letter-spacing="1.5">HOCKEY NIGHT</text>
  <text x="100" y="190" fill="#cbd5e1" font-family="'Inter',sans-serif" font-size="22" font-weight="600">Rink-side chill • Fast skates • 4K stream</text>
</svg>
