<svg width="1280" height="720" viewBox="0 0 1280 720" xmlns="http://www.w3.org/2000/svg" role="img" aria-label="Streaming studio with screens and neon lighting">
  <defs>
    <linearGradient id="bg" x1="0" x2="1" y1="0" y2="1">
      <stop stop-color="#0b0c14" offset="0"/>
      <stop stop-color="#0f1423" offset="0.5"/>
      <stop stop-color="#0a0d1c" offset="1"/>
    </linearGradient>
    <radialGradient id="glow" cx="50%" cy="20%" r="78%">
      <stop stop-color="#f472b6" stop-opacity="0.32" offset="0"/>
      <stop stop-color="#a855f7" stop-opacity="0.22" offset="0.5"/>
      <stop stop-color="#22d3ee" stop-opacity="0" offset="1"/>
    </radialGradient>
    <linearGradient id="screen" x1="0" x2="1" y1="0" y2="1">
      <stop stop-color="#111827" offset="0"/>
      <stop stop-color="#0b1322" offset="1"/>
    </linearGradient>
  </defs>
  <rect width="1280" height="720" fill="url(#bg)"/>
  <rect width="1280" height="720" fill="url(#glow)"/>
  <g opacity="0.92">
    <rect x="140" y="180" width="480" height="320" rx="26" fill="url(#screen)" stroke="#1f2937" stroke-width="8"/>
    <rect x="680" y="240" width="420" height="280" rx="24" fill="url(#screen)" stroke="#1f2937" stroke-width="8"/>
    <rect x="220" y="230" width="320" height="140" rx="18" fill="#0f172a" stroke="#1f2937" stroke-width="4"/>
    <rect x="240" y="400" width="360" height="80" rx="16" fill="#0b1224" stroke="#1f2937" stroke-width="4"/>
    <rect x="720" y="270" width="150" height="120" rx="16" fill="#0f172a" stroke="#1f2937" stroke-width="4"/>
    <rect x="900" y="270" width="150" height="120" rx="16" fill="#0f172a" stroke="#1f2937" stroke-width="4"/>
    <rect x="720" y="420" width="300" height="80" rx="16" fill="#111827" stroke="#1f2937" stroke-width="4"/>
  </g>
  <g opacity="0.7" fill="#22d3ee">
    <circle cx="200" cy="200" r="8"/>
    <circle cx="620" cy="190" r="10"/>
    <circle cx="720" cy="210" r="9"/>
    <circle cx="1120" cy="200" r="10"/>
  </g>
  <g opacity="0.35" fill="#a855f7">
    <circle cx="420" cy="160" r="20"/>
    <circle cx="960" cy="140" r="18"/>
  </g>
  <text x="90" y="140" fill="#e2e8f0" font-family="'Inter',sans-serif" font-size="46" font-weight="700" letter-spacing="1.5">US SERIES</text>
  <text x="90" y="180" fill="#cbd5e1" font-family="'Inter',sans-serif" font-size="22" font-weight="600">Cinematic drama • Premium screens • Studio-grade lighting</text>
</svg>
