<svg width="1920" height="1080" viewBox="0 0 1920 1080" xmlns="http://www.w3.org/2000/svg" role="img" aria-label="US Series collage with cinematic lighting">
  <defs>
    <linearGradient id="bg" x1="0" x2="1" y1="0" y2="1">
      <stop stop-color="#0b0c14" offset="0"/>
      <stop stop-color="#0f1423" offset="0.5"/>
      <stop stop-color="#0a0d1c" offset="1"/>
    </linearGradient>
    <radialGradient id="glow" cx="50%" cy="15%" r="70%">
      <stop stop-color="#f472b6" stop-opacity="0.35" offset="0"/>
      <stop stop-color="#a855f7" stop-opacity="0.22" offset="0.5"/>
      <stop stop-color="#22d3ee" stop-opacity="0" offset="1"/>
    </radialGradient>
    <linearGradient id="screen" x1="0" x2="1" y1="0" y2="1">
      <stop stop-color="#111827" offset="0"/>
      <stop stop-color="#0b1322" offset="1"/>
    </linearGradient>
  </defs>
  <rect width="1920" height="1080" fill="url(#bg)"/>
  <rect width="1920" height="1080" fill="url(#glow)"/>
  <g opacity="0.9">
    <rect x="200" y="260" width="720" height="480" rx="28" fill="url(#screen)" stroke="#1f2937" stroke-width="8"/>
    <rect x="1000" y="320" width="640" height="420" rx="30" fill="url(#screen)" stroke="#1f2937" stroke-width="8"/>
    <rect x="320" y="320" width="360" height="180" rx="20" fill="#111827" stroke="#1f2937" stroke-width="4"/>
    <rect x="360" y="540" width="420" height="160" rx="18" fill="#0f172a" stroke="#1f2937" stroke-width="4"/>
    <rect x="1080" y="360" width="220" height="140" rx="16" fill="#0f172a" stroke="#1f2937" stroke-width="4"/>
    <rect x="1320" y="360" width="220" height="140" rx="16" fill="#0f172a" stroke="#1f2937" stroke-width="4"/>
    <rect x="1080" y="540" width="420" height="180" rx="18" fill="#111827" stroke="#1f2937" stroke-width="4"/>
  </g>
  <g opacity="0.7" fill="#22d3ee">
    <circle cx="320" cy="300" r="10"/>
    <circle cx="880" cy="280" r="12"/>
    <circle cx="1040" cy="300" r="10"/>
    <circle cx="1540" cy="300" r="12"/>
  </g>
  <g opacity="0.35" fill="#a855f7">
    <circle cx="600" cy="220" r="30"/>
    <circle cx="1380" cy="200" r="24"/>
  </g>
  <text x="120" y="200" fill="#e2e8f0" font-family="'Inter',sans-serif" font-size="70" font-weight="700" letter-spacing="2">US SERIES</text>
  <text x="120" y="260" fill="#cbd5e1" font-family="'Inter',sans-serif" font-size="34" font-weight="600">Cinematic drama • Premium screens • Studio-grade lighting</text>
</svg>
