<svg width="1920" height="1080" viewBox="0 0 1920 1080" xmlns="http://www.w3.org/2000/svg" role="img" aria-label="NBA Live court with arena lights">
  <defs>
    <linearGradient id="bg" x1="0" x2="1" y1="0" y2="1">
      <stop stop-color="#0a0b12" offset="0"/>
      <stop stop-color="#0f1324" offset="0.45"/>
      <stop stop-color="#0c1020" offset="1"/>
    </linearGradient>
    <radialGradient id="arena" cx="50%" cy="20%" r="70%">
      <stop stop-color="#8b5cf6" stop-opacity="0.45" offset="0"/>
      <stop stop-color="#22d3ee" stop-opacity="0.25" offset="0.55"/>
      <stop stop-color="#0ea5e9" stop-opacity="0" offset="1"/>
    </radialGradient>
    <linearGradient id="court" x1="0" x2="0" y1="0" y2="1">
      <stop stop-color="#c08457" offset="0"/>
      <stop stop-color="#a46b46" offset="1"/>
    </linearGradient>
  </defs>
  <rect width="1920" height="1080" fill="url(#bg)"/>
  <rect width="1920" height="1080" fill="url(#arena)"/>
  <rect x="-60" y="620" width="2040" height="520" fill="url(#court)" opacity="0.9"/>
  <g opacity="0.6" stroke="#f8fafc" stroke-width="10">
    <line x1="120" y1="680" x2="1800" y2="680"/>
    <line x1="120" y1="940" x2="1800" y2="940"/>
    <line x1="960" y1="620" x2="960" y2="1140"/>
    <circle cx="960" cy="810" r="120"/>
  </g>
  <g opacity="0.85">
    <rect x="720" y="500" width="60" height="260" rx="10" fill="#22d3ee"/>
    <rect x="820" y="520" width="60" height="240" rx="10" fill="#8b5cf6"/>
    <rect x="1040" y="540" width="60" height="220" rx="10" fill="#f97316"/>
    <rect x="1140" y="500" width="60" height="260" rx="10" fill="#facc15"/>
  </g>
  <g opacity="0.9" fill="#0f172a">
    <circle cx="820" cy="750" r="38" fill="#f8fafc"/>
    <circle cx="1100" cy="760" r="42" fill="#f8fafc"/>
    <rect x="860" y="720" width="220" height="28" rx="14" fill="#f8fafc"/>
  </g>
  <text x="120" y="220" fill="#e2e8f0" font-family="'Inter',sans-serif" font-size="78" font-weight="700" letter-spacing="2">NBA LIVE</text>
  <text x="120" y="286" fill="#cbd5e1" font-family="'Inter',sans-serif" font-size="36" font-weight="600">Courtside energy • Arena lights • 4K stream</text>
</svg>
