<svg width="1920" height="1080" viewBox="0 0 1920 1080" xmlns="http://www.w3.org/2000/svg" role="img" aria-label="NHL ice rink with cold blue tones">
  <defs>
    <linearGradient id="bg" x1="0" x2="1" y1="0" y2="1">
      <stop stop-color="#08111f" offset="0"/>
      <stop stop-color="#0c1a2c" offset="0.45"/>
      <stop stop-color="#0f2235" offset="1"/>
    </linearGradient>
    <radialGradient id="glow" cx="50%" cy="20%" r="70%">
      <stop stop-color="#38bdf8" stop-opacity="0.4" offset="0"/>
      <stop stop-color="#22d3ee" stop-opacity="0.15" offset="0.6"/>
      <stop stop-color="#0ea5e9" stop-opacity="0" offset="1"/>
    </radialGradient>
    <linearGradient id="ice" x1="0" x2="0" y1="0" y2="1">
      <stop stop-color="#dbeafe" stop-opacity="0.7" offset="0"/>
      <stop stop-color="#cbd5e1" stop-opacity="0.85" offset="1"/>
    </linearGradient>
  </defs>
  <rect width="1920" height="1080" fill="url(#bg)"/>
  <rect width="1920" height="1080" fill="url(#glow)"/>
  <rect x="-40" y="640" width="2000" height="520" fill="url(#ice)" opacity="0.92" rx="32"/>
  <g stroke="#0ea5e9" stroke-width="8" opacity="0.7">
    <rect x="200" y="700" width="1520" height="260" rx="40" fill="none"/>
    <line x1="960" y1="700" x2="960" y2="960"/>
    <circle cx="960" cy="830" r="90"/>
  </g>
  <g opacity="0.9">
    <path d="M760 780c18-28 46-42 80-42 34 0 60 8 84 28l-24 92-140-12z" fill="#0f172a" opacity="0.8"/>
    <rect x="870" y="712" width="12" height="92" rx="6" fill="#0ea5e9"/>
    <rect x="888" y="720" width="12" height="82" rx="6" fill="#38bdf8"/>
    <circle cx="924" cy="760" r="14" fill="#f8fafc"/>
  </g>
  <text x="120" y="220" fill="#e2e8f0" font-family="'Inter',sans-serif" font-size="74" font-weight="700" letter-spacing="2">NHL TONIGHT</text>
  <text x="120" y="286" fill="#cbd5e1" font-family="'Inter',sans-serif" font-size="34" font-weight="600">Ice-cold lighting • Rink-side view • 4K stream</text>
</svg>
