<svg width="1920" height="1080" viewBox="0 0 1920 1080" xmlns="http://www.w3.org/2000/svg" role="img" aria-label="NFL Live stadium under night lights">
  <defs>
    <linearGradient id="g1" x1="0" x2="1" y1="0" y2="1">
      <stop stop-color="#0b1224" offset="0"/>
      <stop stop-color="#0f1a33" offset="0.45"/>
      <stop stop-color="#111c40" offset="1"/>
    </linearGradient>
    <radialGradient id="lights" cx="50%" cy="10%" r="70%">
      <stop stop-color="#4fd1c5" stop-opacity="0.6" offset="0"/>
      <stop stop-color="#4fd1c5" stop-opacity="0" offset="1"/>
    </radialGradient>
    <linearGradient id="field" x1="0" x2="0" y1="0" y2="1">
      <stop stop-color="#0e9f6e" stop-opacity="0.7" offset="0"/>
      <stop stop-color="#0b7a55" stop-opacity="0.85" offset="1"/>
    </linearGradient>
  </defs>
  <rect width="1920" height="1080" fill="url(#g1)"/>
  <rect width="1920" height="1080" fill="url(#lights)"/>
  <g opacity="0.65">
    <ellipse cx="960" cy="760" rx="980" ry="260" fill="#0a0f1d"/>
    <ellipse cx="960" cy="760" rx="860" ry="220" fill="#0d1527"/>
  </g>
  <rect x="-40" y="640" width="2000" height="520" fill="url(#field)" opacity="0.95"/>
  <g stroke="#cbd5e1" stroke-width="6" opacity="0.6">
    <line x1="120" y1="760" x2="1800" y2="760"/>
    <line x1="120" y1="850" x2="1800" y2="850"/>
    <line x1="120" y1="940" x2="1800" y2="940"/>
  </g>
  <g fill="#e2e8f0" opacity="0.9">
    <rect x="380" y="520" width="1160" height="160" rx="18" fill="#10192c" opacity="0.6"/>
    <rect x="880" y="300" width="60" height="260" rx="6" fill="#4fd1c5" opacity="0.9"/>
    <rect x="980" y="300" width="60" height="260" rx="6" fill="#9f7aea" opacity="0.8"/>
    <rect x="1080" y="300" width="60" height="260" rx="6" fill="#f59e0b" opacity="0.9"/>
  </g>
  <g opacity="0.9">
    <path d="M650 700c40-60 90-90 140-92 50-2 85 30 140 32 40 2 90-12 140-44l120 130-540-26z" fill="#1f2937" opacity="0.85"/>
    <circle cx="720" cy="690" r="24" fill="#f472b6"/>
    <circle cx="1010" cy="642" r="22" fill="#38bdf8"/>
    <circle cx="1180" cy="610" r="20" fill="#fb7185"/>
  </g>
  <text x="110" y="220" fill="#e2e8f0" font-family="'Inter',sans-serif" font-size="80" font-weight="700" letter-spacing="2">NFL LIVE</text>
  <text x="110" y="290" fill="#94a3b8" font-family="'Inter',sans-serif" font-size="38" font-weight="600">Prime Time Stadium • Night Lights • 4K Stream</text>
</svg>
